<svg id="Layer_1" data-name="Layer 1" xmlns="http://www.w3.org/2000/svg" xmlns:xlink="http://www.w3.org/1999/xlink" viewBox="0 0 99.94 90.76"><defs><style>.cls-1,.cls-2{fill:none;}.cls-2{clip-rule:evenodd;}.cls-3{isolation:isolate;}.cls-4{clip-path:url(#clip-path);}.cls-5{clip-path:url(#clip-path-2);}.cls-6{fill:#952427;}</style><clipPath id="clip-path" transform="translate(-396 -225)"><rect class="cls-1" x="401" y="230" width="90" height="81"/></clipPath><clipPath id="clip-path-2" transform="translate(-396 -225)"><path class="cls-2" d="M425.63,237.61c-8.19,0-17,5.93-17,18.94,0,16,25.25,36.7,37.35,45.06,12.1-8.36,37.35-29.11,37.35-45.06,0-13-8.82-18.94-17-18.94-6.72,0-12.75,3.71-16.55,10.19-0.16.26-.29,0.49-0.42,0.75L446,254.92l-3.37-6.36c-0.14-.26-0.27-0.49-0.4-0.7C438.38,241.33,432.34,237.61,425.63,237.61ZM446,310.76l-2.08-1.36c-1.75-1.15-42.88-28.33-42.88-52.84,0-17.43,12.39-26.56,24.63-26.56A26.32,26.32,0,0,1,446,240a26.33,26.33,0,0,1,20.34-10c12.24,0,24.63,9.12,24.63,26.56,0,24.51-41.13,51.69-42.88,52.84Z"/></clipPath></defs><title>heart</title><g class="cls-3"><g class="cls-4"><g class="cls-5"><g class="cls-4"><rect class="cls-6" width="99.94" height="90.76"/></g></g></g></g></svg>